<?xml version="1.0" encoding="utf-8"?><svg version="1.1" id="Layer_1" xmlns="http://www.w3.org/2000/svg" xmlns:xlink="http://www.w3.org/1999/xlink" x="0px" y="0px" viewBox="0 0 96.42 122.88" style="enable-background:new 0 0 96.42 122.88" xml:space="preserve"><style type="text/css">.st0{fill-rule:evenodd;clip-rule:evenodd;}</style><g><path class="st0" d="M17.14,0h62.14C84,0,88.32,1.94,91.4,5.02c3.13,3.13,5.02,7.4,5.02,12.12c0,37.1,0,51.51,0,88.61 c0,4.72-1.89,8.99-5.02,12.12c-3.08,3.08-7.4,5.02-12.12,5.02H17.14c-4.72,0-8.99-1.89-12.12-5.02C1.94,114.78,0,110.46,0,105.74 c0-37.1,0-51.5,0-88.61C0,12.42,1.94,8.1,5.02,5.02C8.15,1.89,12.42,0,17.14,0L17.14,0z M45.14,60.23h0.27 c2.12,0,3.87,1.75,3.87,3.87v24.84h2.51V78.52c0-1.97,1.62-3.59,3.59-3.59h0.27c2.12,0,3.87,1.75,3.87,3.86v10.39l0.12-0.05h2.71 v-7.9c0-1.97,1.62-3.59,3.59-3.59h0.27c2.12,0,3.87,1.75,3.87,3.86v7.24h0.02l2.68-0.02v-5.12c0-1.97,1.62-3.59,3.59-3.59h0.27 c2.12,0,3.87,1.75,3.87,3.86v10.83c0,0.12,0,0.27-0.02,0.39l0.12,0.1c0.1,2.96,0.08,6.46-0.43,9.9h9.43c0-35.4,0-52.83,0-88.23 H6.76c0,35.4,0,52.83,0,88.23h31.75L26.16,85.51c-0.79-1.85-0.69-3.1,0.1-3.91c3.4-2.22,8.96,2.49,15.12,9.13l0.22-0.05V63.77 c0-1.97,1.62-3.59,3.59-3.59L45.14,60.23L45.14,60.23z M47.48,49.86c0,1.06-0.86,1.9-1.9,1.9c-1.06,0-1.9-0.86-1.9-1.9v-7.66 c0-1.06,0.86-1.9,1.9-1.9c1.06,0,1.9,0.86,1.9,1.9V49.86L47.48,49.86L47.48,49.86z M30.2,65.54c1.06,0,1.9,0.86,1.9,1.9 c0,1.06-0.86,1.9-1.9,1.9h-7.66c-1.06,0-1.9-0.86-1.9-1.9c0-1.06,0.86-1.9,1.9-1.9H30.2L30.2,65.54z M35.61,54.2 c0.74,0.74,0.74,1.94,0,2.68c-0.74,0.74-1.94,0.74-2.68,0l-5.39-5.42c-0.74-0.74-0.74-1.94,0-2.68c0.74-0.74,1.94-0.74,2.68,0 L35.61,54.2L35.61,54.2z M60.58,69.34c-1.06,0-1.9-0.86-1.9-1.9c0-1.06,0.86-1.9,1.9-1.9h7.66c1.06,0,1.9,0.86,1.9,1.9 c0,1.06-0.86,1.9-1.9,1.9H60.58L60.58,69.34z M57.84,56.46c-0.74,0.74-1.95,0.74-2.68,0s-0.74-1.94,0-2.68l5.39-5.42 c0.74-0.74,1.94-0.74,2.68,0c0.74,0.74,0.74,1.95,0,2.68L57.84,56.46L57.84,56.46z"/></g></svg>